<mxfile host="app.diagrams.net" modified="2023-12-27T21:08:42.302Z" agent="Mozilla/5.0 (Windows NT 10.0; Win64; x64) AppleWebKit/537.36 (KHTML, like Gecko) Chrome/120.0.0.0 Safari/537.36" etag="BRFuT-iTA7gH46KJM9Tj" version="22.1.15" type="device">
  <diagram name="Page-1" id="2YBvvXClWsGukQMizWep">
    <mxGraphModel dx="2524" dy="746" grid="1" gridSize="10" guides="1" tooltips="1" connect="1" arrows="1" fold="1" page="1" pageScale="1" pageWidth="850" pageHeight="1100" math="0" shadow="0">
      <root>
        <mxCell id="0" />
        <mxCell id="1" parent="0" />
        <mxCell id="AnqcurCxDS_o7pJ3z2_w-18" value="Battle Manager" style="shape=umlLifeline;perimeter=lifelinePerimeter;whiteSpace=wrap;html=1;container=1;dropTarget=0;collapsible=0;recursiveResize=0;outlineConnect=0;portConstraint=eastwest;newEdgeStyle={&quot;curved&quot;:0,&quot;rounded&quot;:0};" parent="1" vertex="1">
          <mxGeometry x="300" y="40" width="100" height="880" as="geometry" />
        </mxCell>
        <mxCell id="AnqcurCxDS_o7pJ3z2_w-19" value="" style="html=1;points=[];perimeter=orthogonalPerimeter;outlineConnect=0;targetShapes=umlLifeline;portConstraint=eastwest;newEdgeStyle={&quot;edgeStyle&quot;:&quot;elbowEdgeStyle&quot;,&quot;elbow&quot;:&quot;vertical&quot;,&quot;curved&quot;:0,&quot;rounded&quot;:0};" parent="AnqcurCxDS_o7pJ3z2_w-18" vertex="1">
          <mxGeometry x="45" y="140" width="10" height="470" as="geometry" />
        </mxCell>
        <mxCell id="5b2Ryhpj01AECXUh49oq-21" value="" style="html=1;points=[[0,0,0,0,5],[0,1,0,0,-5],[1,0,0,0,5],[1,1,0,0,-5]];perimeter=orthogonalPerimeter;outlineConnect=0;targetShapes=umlLifeline;portConstraint=eastwest;newEdgeStyle={&quot;curved&quot;:0,&quot;rounded&quot;:0};" parent="AnqcurCxDS_o7pJ3z2_w-18" vertex="1">
          <mxGeometry x="50" y="330" width="10" height="30" as="geometry" />
        </mxCell>
        <mxCell id="5b2Ryhpj01AECXUh49oq-22" value="&lt;font style=&quot;font-size: 9px;&quot;&gt;8 : checkValidityBattleData(battleData))&lt;/font&gt;" style="html=1;align=left;spacingLeft=2;endArrow=block;rounded=0;edgeStyle=orthogonalEdgeStyle;curved=0;rounded=0;" parent="AnqcurCxDS_o7pJ3z2_w-18" target="5b2Ryhpj01AECXUh49oq-21" edge="1">
          <mxGeometry relative="1" as="geometry">
            <mxPoint x="55" y="310" as="sourcePoint" />
            <Array as="points">
              <mxPoint x="80" y="310" />
              <mxPoint x="80" y="330" />
            </Array>
          </mxGeometry>
        </mxCell>
        <mxCell id="6H1mdJFXyt7ofiKNNQ1x-25" value="DBMS" style="shape=umlLifeline;perimeter=lifelinePerimeter;whiteSpace=wrap;html=1;container=0;dropTarget=0;collapsible=0;recursiveResize=0;outlineConnect=0;portConstraint=eastwest;newEdgeStyle={&quot;curved&quot;:0,&quot;rounded&quot;:0};" parent="1" vertex="1">
          <mxGeometry x="580" y="40" width="100" height="880" as="geometry" />
        </mxCell>
        <mxCell id="AnqcurCxDS_o7pJ3z2_w-1" value="Web App" style="shape=umlLifeline;perimeter=lifelinePerimeter;whiteSpace=wrap;html=1;container=0;dropTarget=0;collapsible=0;recursiveResize=0;outlineConnect=0;portConstraint=eastwest;newEdgeStyle={&quot;edgeStyle&quot;:&quot;elbowEdgeStyle&quot;,&quot;elbow&quot;:&quot;vertical&quot;,&quot;curved&quot;:0,&quot;rounded&quot;:0};" parent="1" vertex="1">
          <mxGeometry x="80" y="40" width="100" height="880" as="geometry" />
        </mxCell>
        <mxCell id="AnqcurCxDS_o7pJ3z2_w-2" value="" style="html=1;points=[];perimeter=orthogonalPerimeter;outlineConnect=0;targetShapes=umlLifeline;portConstraint=eastwest;newEdgeStyle={&quot;edgeStyle&quot;:&quot;elbowEdgeStyle&quot;,&quot;elbow&quot;:&quot;vertical&quot;,&quot;curved&quot;:0,&quot;rounded&quot;:0};" parent="AnqcurCxDS_o7pJ3z2_w-1" vertex="1">
          <mxGeometry x="45" y="140" width="10" height="20" as="geometry" />
        </mxCell>
        <mxCell id="AnqcurCxDS_o7pJ3z2_w-3" value="" style="html=1;points=[];perimeter=orthogonalPerimeter;outlineConnect=0;targetShapes=umlLifeline;portConstraint=eastwest;newEdgeStyle={&quot;edgeStyle&quot;:&quot;elbowEdgeStyle&quot;,&quot;elbow&quot;:&quot;vertical&quot;,&quot;curved&quot;:0,&quot;rounded&quot;:0};" parent="AnqcurCxDS_o7pJ3z2_w-1" vertex="1">
          <mxGeometry x="45" y="220" width="10" height="460" as="geometry" />
        </mxCell>
        <mxCell id="AnqcurCxDS_o7pJ3z2_w-48" value="" style="html=1;points=[];perimeter=orthogonalPerimeter;outlineConnect=0;targetShapes=umlLifeline;portConstraint=eastwest;newEdgeStyle={&quot;edgeStyle&quot;:&quot;elbowEdgeStyle&quot;,&quot;elbow&quot;:&quot;vertical&quot;,&quot;curved&quot;:0,&quot;rounded&quot;:0};" parent="AnqcurCxDS_o7pJ3z2_w-1" vertex="1">
          <mxGeometry x="45" y="700" width="10" height="40" as="geometry" />
        </mxCell>
        <mxCell id="AnqcurCxDS_o7pJ3z2_w-51" value="" style="html=1;points=[];perimeter=orthogonalPerimeter;outlineConnect=0;targetShapes=umlLifeline;portConstraint=eastwest;newEdgeStyle={&quot;edgeStyle&quot;:&quot;elbowEdgeStyle&quot;,&quot;elbow&quot;:&quot;vertical&quot;,&quot;curved&quot;:0,&quot;rounded&quot;:0};" parent="AnqcurCxDS_o7pJ3z2_w-1" vertex="1">
          <mxGeometry x="265" y="760" width="10" height="21.18" as="geometry" />
        </mxCell>
        <mxCell id="AnqcurCxDS_o7pJ3z2_w-52" value="" style="html=1;points=[];perimeter=orthogonalPerimeter;outlineConnect=0;targetShapes=umlLifeline;portConstraint=eastwest;newEdgeStyle={&quot;edgeStyle&quot;:&quot;elbowEdgeStyle&quot;,&quot;elbow&quot;:&quot;vertical&quot;,&quot;curved&quot;:0,&quot;rounded&quot;:0};" parent="AnqcurCxDS_o7pJ3z2_w-1" vertex="1">
          <mxGeometry x="45" y="761.18" width="10" height="40" as="geometry" />
        </mxCell>
        <mxCell id="AnqcurCxDS_o7pJ3z2_w-28" value="&lt;font style=&quot;font-size: 9px;&quot;&gt;22 : outcomeMessage&lt;/font&gt;" style="html=1;verticalAlign=bottom;endArrow=openThin;dashed=1;endSize=8;edgeStyle=elbowEdgeStyle;elbow=horizontal;curved=0;rounded=0;endFill=0;" parent="AnqcurCxDS_o7pJ3z2_w-1" source="AnqcurCxDS_o7pJ3z2_w-51" target="AnqcurCxDS_o7pJ3z2_w-52" edge="1">
          <mxGeometry relative="1" as="geometry">
            <mxPoint x="50" y="771.18" as="targetPoint" />
            <Array as="points">
              <mxPoint x="150" y="781.18" />
            </Array>
            <mxPoint x="184" y="828.1800000000001" as="sourcePoint" />
          </mxGeometry>
        </mxCell>
        <mxCell id="AnqcurCxDS_o7pJ3z2_w-4" value="&lt;font style=&quot;font-size: 9px;&quot;&gt;Educator&lt;/font&gt;" style="shape=umlActor;verticalLabelPosition=bottom;verticalAlign=top;html=1;outlineConnect=0;" parent="1" vertex="1">
          <mxGeometry x="-100" y="40" width="20" height="40" as="geometry" />
        </mxCell>
        <mxCell id="AnqcurCxDS_o7pJ3z2_w-5" value="" style="endArrow=none;dashed=1;html=1;rounded=0;" parent="1" edge="1">
          <mxGeometry width="50" height="50" relative="1" as="geometry">
            <mxPoint x="-90" y="170" as="sourcePoint" />
            <mxPoint x="-90" y="160" as="targetPoint" />
          </mxGeometry>
        </mxCell>
        <mxCell id="AnqcurCxDS_o7pJ3z2_w-6" value="" style="html=1;points=[];perimeter=orthogonalPerimeter;outlineConnect=0;targetShapes=umlLifeline;portConstraint=eastwest;newEdgeStyle={&quot;edgeStyle&quot;:&quot;elbowEdgeStyle&quot;,&quot;elbow&quot;:&quot;vertical&quot;,&quot;curved&quot;:0,&quot;rounded&quot;:0};" parent="1" vertex="1">
          <mxGeometry x="-95" y="110" width="10" height="800" as="geometry" />
        </mxCell>
        <mxCell id="AnqcurCxDS_o7pJ3z2_w-7" value="&lt;font style=&quot;font-size: 9px;&quot;&gt;1 : click(createNewBattleButton)&lt;/font&gt;" style="html=1;verticalAlign=bottom;endArrow=block;edgeStyle=elbowEdgeStyle;elbow=horizontal;curved=0;rounded=0;" parent="1" source="AnqcurCxDS_o7pJ3z2_w-6" target="AnqcurCxDS_o7pJ3z2_w-2" edge="1">
          <mxGeometry relative="1" as="geometry">
            <mxPoint x="-85" y="170" as="sourcePoint" />
            <Array as="points">
              <mxPoint x="20" y="180" />
            </Array>
            <mxPoint x="115" y="170" as="targetPoint" />
          </mxGeometry>
        </mxCell>
        <mxCell id="AnqcurCxDS_o7pJ3z2_w-8" value="&lt;font style=&quot;font-size: 9px;&quot;&gt;2 : showPage(battleCreationPage)&lt;/font&gt;" style="html=1;verticalAlign=bottom;endArrow=openThin;dashed=1;endSize=8;edgeStyle=elbowEdgeStyle;elbow=vertical;curved=0;rounded=0;endFill=0;" parent="1" source="AnqcurCxDS_o7pJ3z2_w-2" target="AnqcurCxDS_o7pJ3z2_w-6" edge="1">
          <mxGeometry relative="1" as="geometry">
            <mxPoint x="-85" y="200" as="targetPoint" />
            <Array as="points">
              <mxPoint x="5" y="200" />
            </Array>
            <mxPoint x="80" y="200" as="sourcePoint" />
          </mxGeometry>
        </mxCell>
        <mxCell id="AnqcurCxDS_o7pJ3z2_w-10" value="Account Manager" style="shape=umlLifeline;perimeter=lifelinePerimeter;whiteSpace=wrap;html=1;container=1;dropTarget=0;collapsible=0;recursiveResize=0;outlineConnect=0;portConstraint=eastwest;newEdgeStyle={&quot;curved&quot;:0,&quot;rounded&quot;:0};" parent="1" vertex="1">
          <mxGeometry x="460" y="40" width="100" height="880" as="geometry" />
        </mxCell>
        <mxCell id="AnqcurCxDS_o7pJ3z2_w-11" value="" style="html=1;points=[];perimeter=orthogonalPerimeter;outlineConnect=0;targetShapes=umlLifeline;portConstraint=eastwest;newEdgeStyle={&quot;edgeStyle&quot;:&quot;elbowEdgeStyle&quot;,&quot;elbow&quot;:&quot;vertical&quot;,&quot;curved&quot;:0,&quot;rounded&quot;:0};" parent="AnqcurCxDS_o7pJ3z2_w-10" vertex="1">
          <mxGeometry x="44" y="240" width="10" height="30" as="geometry" />
        </mxCell>
        <mxCell id="AnqcurCxDS_o7pJ3z2_w-14" value="&lt;font style=&quot;font-size: 9px;&quot;&gt;5 : createBattle(userId, battleData,tournamentId)&lt;/font&gt;" style="html=1;verticalAlign=bottom;endArrow=block;edgeStyle=elbowEdgeStyle;elbow=horizontal;curved=0;rounded=0;" parent="1" source="AnqcurCxDS_o7pJ3z2_w-3" target="AnqcurCxDS_o7pJ3z2_w-19" edge="1">
          <mxGeometry relative="1" as="geometry">
            <mxPoint x="134" y="270" as="sourcePoint" />
            <Array as="points">
              <mxPoint x="249" y="270" />
            </Array>
            <mxPoint x="314" y="270" as="targetPoint" />
            <mxPoint as="offset" />
          </mxGeometry>
        </mxCell>
        <mxCell id="AnqcurCxDS_o7pJ3z2_w-22" value="Notification Manager" style="shape=umlLifeline;perimeter=lifelinePerimeter;whiteSpace=wrap;html=1;container=1;dropTarget=0;collapsible=0;recursiveResize=0;outlineConnect=0;portConstraint=eastwest;newEdgeStyle={&quot;curved&quot;:0,&quot;rounded&quot;:0};" parent="1" vertex="1">
          <mxGeometry x="752" y="40" width="110" height="880" as="geometry" />
        </mxCell>
        <mxCell id="AnqcurCxDS_o7pJ3z2_w-23" value="Notification APIs" style="shape=umlLifeline;perimeter=lifelinePerimeter;whiteSpace=wrap;html=1;container=1;dropTarget=0;collapsible=0;recursiveResize=0;outlineConnect=0;portConstraint=eastwest;newEdgeStyle={&quot;curved&quot;:0,&quot;rounded&quot;:0};" parent="1" vertex="1">
          <mxGeometry x="880" y="40" width="100" height="880" as="geometry" />
        </mxCell>
        <mxCell id="6H1mdJFXyt7ofiKNNQ1x-10" value="&lt;b&gt;ref&lt;/b&gt;" style="shape=umlFrame;whiteSpace=wrap;html=1;pointerEvents=0;width=50;height=15;labelBorderColor=none;labelBackgroundColor=none;fontColor=default;swimlaneFillColor=default;" parent="1" vertex="1">
          <mxGeometry x="-210" y="120" width="1190" height="40" as="geometry" />
        </mxCell>
        <mxCell id="6H1mdJFXyt7ofiKNNQ1x-11" value="" style="endArrow=none;dashed=1;html=1;rounded=0;" parent="1" edge="1">
          <mxGeometry width="50" height="50" relative="1" as="geometry">
            <mxPoint x="-90.43" y="110" as="sourcePoint" />
            <mxPoint x="-90.43" y="100" as="targetPoint" />
          </mxGeometry>
        </mxCell>
        <mxCell id="6H1mdJFXyt7ofiKNNQ1x-12" value="" style="html=1;points=[[0,0,0,0,5],[0,1,0,0,-5],[1,0,0,0,5],[1,1,0,0,-5]];perimeter=orthogonalPerimeter;outlineConnect=0;targetShapes=umlLifeline;portConstraint=eastwest;newEdgeStyle={&quot;curved&quot;:0,&quot;rounded&quot;:0};" parent="1" vertex="1">
          <mxGeometry x="-89" y="230" width="10" height="20" as="geometry" />
        </mxCell>
        <mxCell id="6H1mdJFXyt7ofiKNNQ1x-13" value="&lt;font style=&quot;font-size: 9px;&quot;&gt;3 : fillUpBattleForm(battleData)&lt;/font&gt;" style="html=1;align=left;spacingLeft=2;endArrow=block;rounded=0;edgeStyle=orthogonalEdgeStyle;curved=0;rounded=0;" parent="1" target="6H1mdJFXyt7ofiKNNQ1x-12" edge="1">
          <mxGeometry relative="1" as="geometry">
            <mxPoint x="-84" y="210" as="sourcePoint" />
            <Array as="points">
              <mxPoint x="-59" y="210" />
              <mxPoint x="-59" y="230" />
            </Array>
          </mxGeometry>
        </mxCell>
        <mxCell id="6H1mdJFXyt7ofiKNNQ1x-14" value="&lt;font style=&quot;font-size: 9px;&quot;&gt;4 : click(confirmButton)&lt;/font&gt;" style="html=1;verticalAlign=bottom;endArrow=block;edgeStyle=elbowEdgeStyle;elbow=horizontal;curved=0;rounded=0;" parent="1" edge="1">
          <mxGeometry relative="1" as="geometry">
            <mxPoint x="-85" y="260" as="sourcePoint" />
            <Array as="points">
              <mxPoint x="30" y="260" />
            </Array>
            <mxPoint x="125" y="260" as="targetPoint" />
          </mxGeometry>
        </mxCell>
        <mxCell id="6H1mdJFXyt7ofiKNNQ1x-16" value="" style="html=1;points=[];perimeter=orthogonalPerimeter;outlineConnect=0;targetShapes=umlLifeline;portConstraint=eastwest;newEdgeStyle={&quot;edgeStyle&quot;:&quot;elbowEdgeStyle&quot;,&quot;elbow&quot;:&quot;vertical&quot;,&quot;curved&quot;:0,&quot;rounded&quot;:0};" parent="1" vertex="1">
          <mxGeometry x="802" y="500" width="10" height="120" as="geometry" />
        </mxCell>
        <mxCell id="6H1mdJFXyt7ofiKNNQ1x-17" value="&lt;p style=&quot;line-height: 120%; font-size: 9px;&quot;&gt;&lt;b style=&quot;border-color: var(--border-color);&quot;&gt;loop:&amp;nbsp;&lt;/b&gt;sendNotification&amp;nbsp; &amp;nbsp;Outcome == false&lt;br&gt;&lt;/p&gt;" style="shape=umlFrame;whiteSpace=wrap;html=1;pointerEvents=0;width=98;height=33;verticalAlign=middle;horizontal=1;labelPosition=center;verticalLabelPosition=middle;align=center;" parent="1" vertex="1">
          <mxGeometry x="240" y="477" width="710" height="153" as="geometry" />
        </mxCell>
        <mxCell id="6H1mdJFXyt7ofiKNNQ1x-18" value="&lt;font style=&quot;font-size: 9px;&quot;&gt;11 : sendBattleNot(battleId)&lt;/font&gt;" style="html=1;verticalAlign=bottom;endArrow=block;edgeStyle=elbowEdgeStyle;elbow=vertical;curved=0;rounded=0;" parent="1" target="6H1mdJFXyt7ofiKNNQ1x-16" edge="1" source="AnqcurCxDS_o7pJ3z2_w-19">
          <mxGeometry relative="1" as="geometry">
            <mxPoint x="326" y="535.1800000000001" as="sourcePoint" />
            <Array as="points">
              <mxPoint x="670" y="500" />
            </Array>
            <mxPoint x="666" y="535.1800000000001" as="targetPoint" />
            <mxPoint as="offset" />
          </mxGeometry>
        </mxCell>
        <mxCell id="6H1mdJFXyt7ofiKNNQ1x-19" value="" style="html=1;points=[];perimeter=orthogonalPerimeter;outlineConnect=0;targetShapes=umlLifeline;portConstraint=eastwest;newEdgeStyle={&quot;edgeStyle&quot;:&quot;elbowEdgeStyle&quot;,&quot;elbow&quot;:&quot;vertical&quot;,&quot;curved&quot;:0,&quot;rounded&quot;:0};" parent="1" vertex="1">
          <mxGeometry x="625" y="524.5899999999998" width="10" height="20" as="geometry" />
        </mxCell>
        <mxCell id="6H1mdJFXyt7ofiKNNQ1x-20" value="&lt;font style=&quot;font-size: 9px;&quot;&gt;12 : getUserSubscribed(tournamentId)&lt;/font&gt;" style="html=1;verticalAlign=bottom;endArrow=block;endSize=6;edgeStyle=elbowEdgeStyle;elbow=vertical;curved=0;rounded=0;endFill=1;startArrow=none;startFill=0;" parent="1" target="6H1mdJFXyt7ofiKNNQ1x-19" edge="1">
          <mxGeometry relative="1" as="geometry">
            <mxPoint x="585" y="524.59" as="targetPoint" />
            <Array as="points">
              <mxPoint x="702" y="524.59" />
            </Array>
            <mxPoint x="802" y="524.59" as="sourcePoint" />
          </mxGeometry>
        </mxCell>
        <mxCell id="6H1mdJFXyt7ofiKNNQ1x-21" value="&lt;font style=&quot;font-size: 9px;&quot;&gt;13 : userList&lt;/font&gt;" style="html=1;verticalAlign=bottom;endArrow=openThin;edgeStyle=elbowEdgeStyle;elbow=vertical;curved=0;rounded=0;endFill=0;dashed=1;endSize=8;" parent="1" source="6H1mdJFXyt7ofiKNNQ1x-19" edge="1">
          <mxGeometry relative="1" as="geometry">
            <mxPoint x="676" y="544.59" as="sourcePoint" />
            <Array as="points">
              <mxPoint x="720" y="544.41" />
            </Array>
            <mxPoint x="802" y="544.41" as="targetPoint" />
            <mxPoint as="offset" />
          </mxGeometry>
        </mxCell>
        <mxCell id="6H1mdJFXyt7ofiKNNQ1x-22" value="&lt;p style=&quot;line-height: 120%; font-size: 9px;&quot;&gt;&lt;b&gt;loop foreach: &lt;/b&gt;user &lt;b&gt;in &lt;/b&gt;userList&lt;/p&gt;" style="shape=umlFrame;whiteSpace=wrap;html=1;pointerEvents=0;width=100;height=30;verticalAlign=middle;horizontal=1;labelPosition=center;verticalLabelPosition=middle;align=center;" parent="1" vertex="1">
          <mxGeometry x="692" y="560.0000000000001" width="250" height="40" as="geometry" />
        </mxCell>
        <mxCell id="6H1mdJFXyt7ofiKNNQ1x-23" value="&lt;font style=&quot;font-size: 9px;&quot;&gt;14 : send notification&lt;/font&gt;" style="html=1;verticalAlign=bottom;endArrow=open;edgeStyle=elbowEdgeStyle;elbow=horizontal;curved=0;rounded=0;endFill=0;endSize=8;" parent="1" edge="1">
          <mxGeometry relative="1" as="geometry">
            <mxPoint x="812" y="580.0000000000001" as="sourcePoint" />
            <Array as="points">
              <mxPoint x="872" y="580.0000000000001" />
            </Array>
            <mxPoint x="929.5" y="580.0000000000001" as="targetPoint" />
          </mxGeometry>
        </mxCell>
        <mxCell id="6H1mdJFXyt7ofiKNNQ1x-24" value="&lt;font style=&quot;font-size: 9px;&quot;&gt;15 : sendNotificationOutcome&lt;/font&gt;" style="html=1;verticalAlign=bottom;endArrow=openThin;dashed=1;endSize=8;edgeStyle=elbowEdgeStyle;elbow=horizontal;curved=0;rounded=0;endFill=0;" parent="1" source="6H1mdJFXyt7ofiKNNQ1x-16" target="AnqcurCxDS_o7pJ3z2_w-19" edge="1">
          <mxGeometry relative="1" as="geometry">
            <mxPoint x="327" y="665.1800000000001" as="targetPoint" />
            <Array as="points">
              <mxPoint x="800" y="620" />
            </Array>
            <mxPoint x="666" y="655.1800000000001" as="sourcePoint" />
          </mxGeometry>
        </mxCell>
        <mxCell id="5b2Ryhpj01AECXUh49oq-35" value="&lt;font style=&quot;font-size: 9px;&quot;&gt;25 : showMessage(permissionDenied)&lt;/font&gt;" style="html=1;verticalAlign=bottom;endArrow=openThin;dashed=1;endSize=8;edgeStyle=elbowEdgeStyle;elbow=vertical;curved=0;rounded=0;endFill=0;" parent="1" source="5b2Ryhpj01AECXUh49oq-37" edge="1" target="AnqcurCxDS_o7pJ3z2_w-6">
          <mxGeometry relative="1" as="geometry">
            <mxPoint x="-85" y="950" as="targetPoint" />
            <Array as="points">
              <mxPoint x="100" y="900" />
            </Array>
            <mxPoint x="103" y="1008.1800000000001" as="sourcePoint" />
          </mxGeometry>
        </mxCell>
        <mxCell id="5b2Ryhpj01AECXUh49oq-36" value="" style="html=1;points=[];perimeter=orthogonalPerimeter;outlineConnect=0;targetShapes=umlLifeline;portConstraint=eastwest;newEdgeStyle={&quot;edgeStyle&quot;:&quot;elbowEdgeStyle&quot;,&quot;elbow&quot;:&quot;vertical&quot;,&quot;curved&quot;:0,&quot;rounded&quot;:0};" parent="1" vertex="1">
          <mxGeometry x="345" y="860" width="10" height="20" as="geometry" />
        </mxCell>
        <mxCell id="5b2Ryhpj01AECXUh49oq-37" value="" style="html=1;points=[];perimeter=orthogonalPerimeter;outlineConnect=0;targetShapes=umlLifeline;portConstraint=eastwest;newEdgeStyle={&quot;edgeStyle&quot;:&quot;elbowEdgeStyle&quot;,&quot;elbow&quot;:&quot;vertical&quot;,&quot;curved&quot;:0,&quot;rounded&quot;:0};" parent="1" vertex="1">
          <mxGeometry x="125" y="860" width="10" height="40" as="geometry" />
        </mxCell>
        <mxCell id="5b2Ryhpj01AECXUh49oq-34" value="&lt;font style=&quot;font-size: 9px;&quot;&gt;24 : outcomeMessage&lt;/font&gt;" style="html=1;verticalAlign=bottom;endArrow=openThin;dashed=1;endSize=8;edgeStyle=elbowEdgeStyle;elbow=horizontal;curved=0;rounded=0;endFill=0;" parent="1" source="5b2Ryhpj01AECXUh49oq-36" target="5b2Ryhpj01AECXUh49oq-37" edge="1">
          <mxGeometry relative="1" as="geometry">
            <mxPoint x="134" y="978.1800000000001" as="targetPoint" />
            <Array as="points">
              <mxPoint x="220" y="880" />
            </Array>
            <mxPoint x="264" y="978.1800000000001" as="sourcePoint" />
          </mxGeometry>
        </mxCell>
        <mxCell id="AnqcurCxDS_o7pJ3z2_w-49" value="&lt;font style=&quot;font-size: 9px;&quot;&gt;21 : showMessage(errorWhileCreatingBattle)&lt;/font&gt;" style="html=1;verticalAlign=bottom;endArrow=openThin;dashed=1;endSize=8;edgeStyle=elbowEdgeStyle;elbow=horizontal;curved=0;rounded=0;endFill=0;" parent="1" source="AnqcurCxDS_o7pJ3z2_w-48" target="AnqcurCxDS_o7pJ3z2_w-6" edge="1">
          <mxGeometry relative="1" as="geometry">
            <mxPoint x="-56" y="850" as="targetPoint" />
            <Array as="points">
              <mxPoint x="110" y="780" />
            </Array>
            <mxPoint x="159" y="850" as="sourcePoint" />
          </mxGeometry>
        </mxCell>
        <mxCell id="AnqcurCxDS_o7pJ3z2_w-24" value="&lt;p style=&quot;line-height: 120%; font-size: 9px;&quot;&gt;&lt;b&gt;alt: &lt;/b&gt;outcomePermissionCheck == true&lt;/p&gt;" style="shape=umlFrame;whiteSpace=wrap;html=1;pointerEvents=0;width=109;height=40;verticalAlign=middle;horizontal=1;labelPosition=center;verticalLabelPosition=middle;align=center;" parent="1" vertex="1">
          <mxGeometry x="-210" y="340" width="1190" height="580" as="geometry" />
        </mxCell>
        <mxCell id="AnqcurCxDS_o7pJ3z2_w-25" value="[then]" style="text;html=1;strokeColor=none;fillColor=none;align=center;verticalAlign=middle;whiteSpace=wrap;rounded=0;fontSize=10;" parent="1" vertex="1">
          <mxGeometry x="-190" y="390" width="35" height="10" as="geometry" />
        </mxCell>
        <mxCell id="AnqcurCxDS_o7pJ3z2_w-26" value="[else]" style="text;html=1;strokeColor=none;fillColor=none;align=center;verticalAlign=middle;whiteSpace=wrap;rounded=0;fontSize=10;" parent="1" vertex="1">
          <mxGeometry x="-180" y="810.0000000000001" width="35" height="10" as="geometry" />
        </mxCell>
        <mxCell id="AnqcurCxDS_o7pJ3z2_w-30" value="[then]" style="text;html=1;strokeColor=none;fillColor=none;align=center;verticalAlign=middle;whiteSpace=wrap;rounded=0;fontSize=10;" parent="1" vertex="1">
          <mxGeometry x="-170" y="510" width="35" height="10" as="geometry" />
        </mxCell>
        <mxCell id="AnqcurCxDS_o7pJ3z2_w-39" value="&lt;font style=&quot;font-size: 9px;&quot;&gt;16 : outcomeMessage&lt;/font&gt;" style="html=1;verticalAlign=bottom;endArrow=openThin;dashed=1;endSize=8;edgeStyle=elbowEdgeStyle;elbow=horizontal;curved=0;rounded=0;endFill=0;" parent="1" edge="1" target="AnqcurCxDS_o7pJ3z2_w-3" source="AnqcurCxDS_o7pJ3z2_w-19">
          <mxGeometry relative="1" as="geometry">
            <mxPoint x="134" y="700" as="targetPoint" />
            <Array as="points">
              <mxPoint x="150" y="650" />
            </Array>
            <mxPoint x="314" y="700" as="sourcePoint" />
          </mxGeometry>
        </mxCell>
        <mxCell id="AnqcurCxDS_o7pJ3z2_w-40" value="&lt;font style=&quot;font-size: 9px;&quot;&gt;17 : showMessage(battleSuccessfullyCreated)&lt;/font&gt;" style="html=1;verticalAlign=bottom;endArrow=openThin;dashed=1;endSize=8;edgeStyle=elbowEdgeStyle;elbow=vertical;curved=0;rounded=0;endFill=0;" parent="1" edge="1">
          <mxGeometry relative="1" as="geometry">
            <mxPoint x="-86" y="670" as="targetPoint" />
            <Array as="points">
              <mxPoint x="119" y="670" />
            </Array>
            <mxPoint x="124" y="670" as="sourcePoint" />
          </mxGeometry>
        </mxCell>
        <mxCell id="AnqcurCxDS_o7pJ3z2_w-41" value="[else]" style="text;html=1;strokeColor=none;fillColor=none;align=center;verticalAlign=middle;whiteSpace=wrap;rounded=0;fontSize=10;" parent="1" vertex="1">
          <mxGeometry x="-170" y="750" width="35" height="10" as="geometry" />
        </mxCell>
        <mxCell id="AnqcurCxDS_o7pJ3z2_w-53" value="" style="endArrow=none;dashed=1;html=1;rounded=0;" parent="1" edge="1">
          <mxGeometry width="50" height="50" relative="1" as="geometry">
            <mxPoint x="-90.5" y="920" as="sourcePoint" />
            <mxPoint x="-90.5" y="910" as="targetPoint" />
          </mxGeometry>
        </mxCell>
        <mxCell id="5b2Ryhpj01AECXUh49oq-16" value="" style="html=1;points=[];perimeter=orthogonalPerimeter;outlineConnect=0;targetShapes=umlLifeline;portConstraint=eastwest;newEdgeStyle={&quot;edgeStyle&quot;:&quot;elbowEdgeStyle&quot;,&quot;elbow&quot;:&quot;vertical&quot;,&quot;curved&quot;:0,&quot;rounded&quot;:0};" parent="1" vertex="1">
          <mxGeometry x="625" y="430" width="10" height="20" as="geometry" />
        </mxCell>
        <mxCell id="5b2Ryhpj01AECXUh49oq-17" value="&lt;font style=&quot;font-size: 9px;&quot;&gt;9 : insertBattle(query)&lt;/font&gt;" style="html=1;verticalAlign=bottom;endArrow=block;edgeStyle=elbowEdgeStyle;elbow=vertical;curved=0;rounded=0;" parent="1" target="5b2Ryhpj01AECXUh49oq-16" edge="1">
          <mxGeometry relative="1" as="geometry">
            <mxPoint x="355" y="430" as="sourcePoint" />
            <Array as="points">
              <mxPoint x="530" y="430" />
            </Array>
            <mxPoint x="770" y="440" as="targetPoint" />
            <mxPoint as="offset" />
          </mxGeometry>
        </mxCell>
        <mxCell id="5b2Ryhpj01AECXUh49oq-18" value="&lt;font style=&quot;font-size: 9px;&quot;&gt;10 : outcomeInsert&lt;/font&gt;" style="html=1;verticalAlign=bottom;endArrow=openThin;dashed=1;endSize=8;edgeStyle=elbowEdgeStyle;elbow=horizontal;curved=0;rounded=0;endFill=0;" parent="1" source="5b2Ryhpj01AECXUh49oq-16" edge="1">
          <mxGeometry relative="1" as="geometry">
            <mxPoint x="355" y="450" as="targetPoint" />
            <Array as="points">
              <mxPoint x="560" y="450" />
            </Array>
            <mxPoint x="765" y="450" as="sourcePoint" />
          </mxGeometry>
        </mxCell>
        <mxCell id="5b2Ryhpj01AECXUh49oq-20" value="&lt;p style=&quot;line-height: 120%; font-size: 9px;&quot;&gt;&lt;b&gt;alt: &lt;/b&gt;outcomeInsert == true&lt;/p&gt;" style="shape=umlFrame;whiteSpace=wrap;html=1;pointerEvents=0;width=80;height=32;verticalAlign=middle;horizontal=1;labelPosition=center;verticalLabelPosition=middle;align=center;" parent="1" vertex="1">
          <mxGeometry x="-190" y="468.18" width="1150" height="321.82" as="geometry" />
        </mxCell>
        <mxCell id="5b2Ryhpj01AECXUh49oq-23" value="&lt;p style=&quot;line-height: 120%; font-size: 9px;&quot;&gt;&lt;b&gt;alt: &lt;/b&gt;battleDataValid == true&lt;/p&gt;" style="shape=umlFrame;whiteSpace=wrap;html=1;pointerEvents=0;width=90;height=30;verticalAlign=middle;horizontal=1;labelPosition=center;verticalLabelPosition=middle;align=center;" parent="1" vertex="1">
          <mxGeometry x="-200" y="410" width="1170" height="440" as="geometry" />
        </mxCell>
        <mxCell id="5b2Ryhpj01AECXUh49oq-24" value="[then]" style="text;html=1;strokeColor=none;fillColor=none;align=center;verticalAlign=middle;whiteSpace=wrap;rounded=0;fontSize=10;" parent="1" vertex="1">
          <mxGeometry x="-180" y="450" width="35" height="10" as="geometry" />
        </mxCell>
        <mxCell id="5b2Ryhpj01AECXUh49oq-28" value="" style="endArrow=none;dashed=1;html=1;rounded=0;strokeWidth=2;" parent="1" edge="1">
          <mxGeometry width="50" height="50" relative="1" as="geometry">
            <mxPoint x="-200" y="800" as="sourcePoint" />
            <mxPoint x="970" y="800" as="targetPoint" />
          </mxGeometry>
        </mxCell>
        <mxCell id="5b2Ryhpj01AECXUh49oq-29" value="" style="endArrow=none;dashed=1;html=1;rounded=0;strokeWidth=2;" parent="1" edge="1">
          <mxGeometry width="50" height="50" relative="1" as="geometry">
            <mxPoint x="-190" y="740" as="sourcePoint" />
            <mxPoint x="960" y="740" as="targetPoint" />
          </mxGeometry>
        </mxCell>
        <mxCell id="5b2Ryhpj01AECXUh49oq-33" value="[else]" style="text;html=1;strokeColor=none;fillColor=none;align=center;verticalAlign=middle;whiteSpace=wrap;rounded=0;fontSize=10;" parent="1" vertex="1">
          <mxGeometry x="-190" y="875.0000000000001" width="35" height="10" as="geometry" />
        </mxCell>
        <mxCell id="5b2Ryhpj01AECXUh49oq-38" value="&lt;font style=&quot;font-size: 9px;&quot;&gt;18 : click(confirmButton)&lt;/font&gt;" style="html=1;verticalAlign=bottom;endArrow=open;edgeStyle=elbowEdgeStyle;elbow=horizontal;curved=0;rounded=0;endFill=0;" parent="1" edge="1">
          <mxGeometry relative="1" as="geometry">
            <mxPoint x="-85" y="694.5799999999999" as="sourcePoint" />
            <Array as="points">
              <mxPoint x="29" y="694.5799999999999" />
            </Array>
            <mxPoint x="125" y="694.5799999999999" as="targetPoint" />
          </mxGeometry>
        </mxCell>
        <mxCell id="5b2Ryhpj01AECXUh49oq-39" value="&lt;font style=&quot;font-size: 9px;&quot;&gt;19 : showPage(tournamentPage)&lt;/font&gt;" style="html=1;verticalAlign=bottom;endArrow=openThin;dashed=1;endSize=8;edgeStyle=elbowEdgeStyle;elbow=vertical;curved=0;rounded=0;endFill=0;" parent="1" edge="1">
          <mxGeometry relative="1" as="geometry">
            <mxPoint x="-85" y="720" as="targetPoint" />
            <Array as="points">
              <mxPoint x="5" y="720" />
            </Array>
            <mxPoint x="125" y="720" as="sourcePoint" />
          </mxGeometry>
        </mxCell>
        <mxCell id="6H1mdJFXyt7ofiKNNQ1x-26" value="" style="endArrow=none;dashed=1;html=1;rounded=0;strokeWidth=2;" parent="1" edge="1">
          <mxGeometry width="50" height="50" relative="1" as="geometry">
            <mxPoint x="-210" y="860" as="sourcePoint" />
            <mxPoint x="980" y="862" as="targetPoint" />
          </mxGeometry>
        </mxCell>
        <mxCell id="AnqcurCxDS_o7pJ3z2_w-20" value="&lt;font style=&quot;font-size: 9px;&quot;&gt;6 : checkUser(sessionData)&lt;/font&gt;" style="html=1;verticalAlign=bottom;endArrow=block;edgeStyle=elbowEdgeStyle;elbow=vertical;curved=0;rounded=0;" parent="1" target="AnqcurCxDS_o7pJ3z2_w-11" edge="1" source="AnqcurCxDS_o7pJ3z2_w-19">
          <mxGeometry x="-0.0002" relative="1" as="geometry">
            <mxPoint x="325" y="280" as="sourcePoint" />
            <Array as="points">
              <mxPoint x="460" y="280" />
            </Array>
            <mxPoint x="470" y="300" as="targetPoint" />
            <mxPoint as="offset" />
          </mxGeometry>
        </mxCell>
        <mxCell id="AnqcurCxDS_o7pJ3z2_w-56" value="&lt;font style=&quot;font-size: 9px;&quot;&gt;7 : outcomePermissionCheck&lt;/font&gt;" style="html=1;verticalAlign=bottom;endArrow=openThin;dashed=1;endSize=8;edgeStyle=elbowEdgeStyle;elbow=horizontal;curved=0;rounded=0;endFill=0;" parent="1" source="AnqcurCxDS_o7pJ3z2_w-11" edge="1" target="AnqcurCxDS_o7pJ3z2_w-19">
          <mxGeometry relative="1" as="geometry">
            <mxPoint x="325" y="310" as="targetPoint" />
            <Array as="points">
              <mxPoint x="410" y="310" />
            </Array>
            <mxPoint x="475" y="310" as="sourcePoint" />
          </mxGeometry>
        </mxCell>
        <mxCell id="AnqcurCxDS_o7pJ3z2_w-45" value="" style="html=1;points=[];perimeter=orthogonalPerimeter;outlineConnect=0;targetShapes=umlLifeline;portConstraint=eastwest;newEdgeStyle={&quot;edgeStyle&quot;:&quot;elbowEdgeStyle&quot;,&quot;elbow&quot;:&quot;vertical&quot;,&quot;curved&quot;:0,&quot;rounded&quot;:0};" parent="1" vertex="1">
          <mxGeometry x="345" y="740" width="10" height="30" as="geometry" />
        </mxCell>
        <mxCell id="AnqcurCxDS_o7pJ3z2_w-47" value="&lt;font style=&quot;font-size: 9px;&quot;&gt;20 : outcomeMessage&lt;/font&gt;" style="html=1;verticalAlign=bottom;endArrow=openThin;dashed=1;endSize=8;edgeStyle=elbowEdgeStyle;elbow=horizontal;curved=0;rounded=0;endFill=0;" parent="1" source="AnqcurCxDS_o7pJ3z2_w-45" target="AnqcurCxDS_o7pJ3z2_w-48" edge="1">
          <mxGeometry relative="1" as="geometry">
            <mxPoint x="174" y="790" as="targetPoint" />
            <Array as="points">
              <mxPoint x="240" y="770" />
            </Array>
            <mxPoint x="324" y="790" as="sourcePoint" />
          </mxGeometry>
        </mxCell>
        <mxCell id="AnqcurCxDS_o7pJ3z2_w-29" value="&lt;font style=&quot;font-size: 9px;&quot;&gt;23 : showMessage(invalidBattleData)&lt;/font&gt;" style="html=1;verticalAlign=bottom;endArrow=openThin;dashed=1;endSize=8;edgeStyle=elbowEdgeStyle;elbow=vertical;curved=0;rounded=0;endFill=0;" parent="1" source="AnqcurCxDS_o7pJ3z2_w-52" edge="1" target="AnqcurCxDS_o7pJ3z2_w-6">
          <mxGeometry relative="1" as="geometry">
            <mxPoint x="-55" y="840" as="targetPoint" />
            <Array as="points">
              <mxPoint x="60" y="840" />
            </Array>
            <mxPoint x="155" y="840" as="sourcePoint" />
          </mxGeometry>
        </mxCell>
        <mxCell id="nlTkryfUaT2Aw4DDi3Z9-2" value="&lt;b&gt;&lt;font style=&quot;font-size: 20px;&quot;&gt;Login&lt;/font&gt;&lt;/b&gt;" style="text;html=1;strokeColor=none;fillColor=none;align=center;verticalAlign=middle;whiteSpace=wrap;rounded=0;" vertex="1" parent="1">
          <mxGeometry x="395" y="125" width="60" height="30" as="geometry" />
        </mxCell>
      </root>
    </mxGraphModel>
  </diagram>
</mxfile>
